<svg width="89" height="28" viewBox="0 0 89 28" fill="none" xmlns="http://www.w3.org/2000/svg">
<g clip-path="url(#clip0_8_341)">
<path d="M22.8491 1.35239C20.8421 1.35239 19.1053 2.0479 17.7158 3.43894C16.3263 4.82998 15.593 6.53013 15.593 8.57804C15.593 10.626 16.2877 12.3261 17.7158 13.7171C19.1053 15.1082 20.8421 15.8037 22.8491 15.8037C24.8947 15.8037 26.593 15.1082 27.9825 13.7171C29.3719 12.3261 30.1053 10.626 30.1053 8.57804C30.1053 6.53013 29.4105 4.82998 27.9825 3.43894C26.593 2.0479 24.8947 1.35239 22.8491 1.35239ZM25.8982 11.6692C25.0877 12.4807 24.0456 12.9057 22.8491 12.9057C21.6526 12.9057 20.6491 12.4807 19.8 11.6692C18.9895 10.8578 18.5649 9.81452 18.5649 8.57804C18.5649 7.34157 18.9895 6.29829 19.8 5.48685C20.6105 4.67542 21.6526 4.25038 22.8491 4.25038C24.0456 4.25038 25.0491 4.67542 25.8982 5.48685C26.7088 6.29829 27.1333 7.34157 27.1333 8.57804C27.1333 9.81452 26.7474 10.8578 25.8982 11.6692Z" fill="#005BAA"/>
<path d="M38.3649 12.8671C37.1684 12.8671 36.1649 12.442 35.3158 11.6306C34.5053 10.8192 34.1193 9.77588 34.1193 8.57804C34.1193 7.34156 34.5439 6.33693 35.3158 5.52549C36.1263 4.71405 37.1684 4.28901 38.3649 4.28901C40.0246 4.28901 41.3368 5.10045 41.9544 6.41421L44.5018 4.94589C43.4211 2.78206 41.0667 1.39102 38.4035 1.39102C36.3579 1.39102 34.6211 2.08654 33.2316 3.47758C31.8807 4.82997 31.186 6.53013 31.186 8.61668C31.186 10.6646 31.8807 12.3647 33.2316 13.7558C34.6211 15.1468 36.3579 15.8423 38.4035 15.8423C41.0667 15.8423 43.3825 14.4899 44.579 12.2875L42.0316 10.8192C41.3754 12.0556 39.986 12.8671 38.3649 12.8671Z" fill="#005BAA"/>
<path d="M57.007 3.67078C55.8877 2.12518 54.3053 1.35239 52.221 1.35239C50.3298 1.35239 48.7474 2.0479 47.3965 3.43894C46.0456 4.82998 45.3895 6.53013 45.3895 8.57804C45.3895 10.5873 46.0456 12.3261 47.3965 13.7171C48.7474 15.1082 50.3298 15.8037 52.221 15.8037C54.3053 15.8037 55.8877 15.0309 57.007 13.4853V15.4559H59.9789V1.70015H57.007V3.67078ZM55.7719 11.7079C54.9614 12.5193 53.9193 12.9444 52.6842 12.9444C51.4491 12.9444 50.407 12.5193 49.5965 11.7079C48.786 10.8578 48.3614 9.81452 48.3614 8.5394C48.3614 7.26429 48.786 6.22101 49.5965 5.40957C50.407 4.5595 51.4491 4.13446 52.6842 4.13446C53.9193 4.13446 54.9614 4.5595 55.7719 5.40957C56.5824 6.22101 57.007 7.26429 57.007 8.5394C57.007 9.81452 56.621 10.8578 55.7719 11.7079Z" fill="#005BAA"/>
<path d="M67.8526 7.26429C66.4246 6.83925 65.2667 6.37558 65.2667 5.48686C65.2667 4.52086 66.1544 4.01854 67.2737 4.01854C68.5088 4.01854 69.3965 4.52086 69.8597 5.56414L72.3684 4.1731C71.4035 2.39567 69.5895 1.31375 67.3123 1.31375C65.8842 1.31375 64.6877 1.70015 63.7228 2.47295C62.7579 3.24575 62.2947 4.25038 62.2947 5.5255C62.2561 8.42349 64.9965 9.23493 67.0421 9.73725C68.5088 10.085 69.6281 10.626 69.6281 11.476C69.6281 12.4807 68.8561 13.0216 67.3123 13.0216C65.7684 13.0216 64.7263 12.3648 64.2632 11.051L61.7158 12.5193C62.6035 14.5286 64.6105 15.7264 67.3123 15.7264C68.8561 15.7264 70.0912 15.34 71.1333 14.6059C72.1368 13.8717 72.6772 12.8284 72.6772 11.5147C72.6772 8.61669 69.9368 7.76661 67.8526 7.26429Z" fill="#005BAA"/>
<path d="M88 8.46214C88 6.45287 87.3439 4.71407 86.0702 3.32304C84.7965 1.932 83.1368 1.19785 81.1298 1.19785C79.007 1.19785 77.2702 1.89336 75.9193 3.2844C74.5684 4.63679 73.8737 6.33695 73.8737 8.4235C73.8737 10.5101 74.5684 12.2489 75.9193 13.6012C77.2702 14.9536 79.0842 15.6492 81.3228 15.6492C83.986 15.6492 85.993 14.6445 87.3053 12.6739L84.8737 11.2442C84.0632 12.3648 82.9053 12.9444 81.3228 12.9444C79.0456 12.9444 77.386 11.7852 76.9228 9.69862H87.807C87.9614 9.1963 88 8.77126 88 8.46214ZM76.9614 7.30295C77.386 5.21639 78.8912 3.94128 81.0912 3.94128C83.0211 3.94128 84.6035 5.10047 84.9895 7.30295H76.9614Z" fill="#005BAA"/>
<path d="M11.8105 14.2581L11.9649 14.1422C12.1193 14.0263 12.2351 13.9104 12.3895 13.7558C13.7789 12.3648 14.5123 10.6646 14.5123 8.61669C14.5123 7.41886 14.2421 6.33694 13.7789 5.37094L11.2316 6.83926C11.4632 7.38022 11.5789 7.95981 11.5789 8.61669C11.5789 9.85317 11.1544 10.8964 10.3439 11.7079C9.53333 12.5193 8.49123 12.9444 7.29474 12.9444C6.09825 12.9444 5.09474 12.5193 4.24561 11.7079C3.43509 10.8964 3.01053 9.85317 3.01053 8.61669C3.01053 7.38022 3.43509 6.33694 4.24561 5.5255C5.05614 4.71407 6.09825 4.28903 7.29474 4.28903H9.84211C10.1895 4.32767 11.386 4.25039 12.4667 3.55487C12.5825 3.47759 12.6982 3.36167 12.8526 3.24575C13.4316 2.70479 14.1263 1.70015 14.1263 0H11.193C11.193 0.540958 11.0772 0.927357 10.8456 1.12056C10.5368 1.42968 9.99649 1.42968 9.9193 1.42968H7.25614C5.24912 1.39104 3.51228 2.08655 2.12281 3.47759C0.694737 4.90726 0 6.60742 0 8.61669C0 10.6646 0.694737 12.3648 2.12281 13.7558C3.51228 15.1468 5.24912 15.8424 7.25614 15.8424C7.75789 15.8424 8.25965 15.8037 8.7614 15.7264C10.0351 16.1128 11.2316 17.0402 11.2316 18.7403C11.2316 20.7883 9.61053 22.1793 7.25614 22.1793C4.97895 22.102 3.24211 20.7883 3.08772 18.9335H0C0.115789 22.527 3.04912 25 7.21754 25C11.4632 25 14.3193 22.4498 14.3193 18.7017C14.3193 16.6538 13.5088 15.2241 11.8105 14.2581Z" fill="#005BAA"/>
</g>
<path d="M61.77 24.295C61.8433 24.295 61.9083 24.3233 61.965 24.38L62.495 24.955C62.2017 25.3183 61.84 25.5967 61.41 25.79C60.9833 25.9833 60.47 26.08 59.87 26.08C59.3333 26.08 58.85 25.9883 58.42 25.805C57.9933 25.6217 57.6283 25.3667 57.325 25.04C57.0217 24.7133 56.7883 24.3233 56.625 23.87C56.465 23.4167 56.385 22.9217 56.385 22.385C56.385 21.8417 56.4717 21.345 56.645 20.895C56.8183 20.4417 57.0617 20.0517 57.375 19.725C57.6917 19.3983 58.0683 19.145 58.505 18.965C58.9417 18.7817 59.425 18.69 59.955 18.69C60.4817 18.69 60.9483 18.7767 61.355 18.95C61.765 19.1233 62.1133 19.35 62.4 19.63L61.95 20.255C61.9233 20.295 61.8883 20.33 61.845 20.36C61.805 20.39 61.7483 20.405 61.675 20.405C61.625 20.405 61.5733 20.3917 61.52 20.365C61.4667 20.335 61.4083 20.3 61.345 20.26C61.2817 20.2167 61.2083 20.17 61.125 20.12C61.0417 20.07 60.945 20.025 60.835 19.985C60.725 19.9417 60.5967 19.9067 60.45 19.88C60.3067 19.85 60.14 19.835 59.95 19.835C59.6267 19.835 59.33 19.8933 59.06 20.01C58.7933 20.1233 58.5633 20.29 58.37 20.51C58.1767 20.7267 58.0267 20.9933 57.92 21.31C57.8133 21.6233 57.76 21.9817 57.76 22.385C57.76 22.7917 57.8167 23.1533 57.93 23.47C58.0467 23.7867 58.2033 24.0533 58.4 24.27C58.5967 24.4867 58.8283 24.6533 59.095 24.77C59.3617 24.8833 59.6483 24.94 59.955 24.94C60.1383 24.94 60.3033 24.93 60.45 24.91C60.6 24.89 60.7367 24.8583 60.86 24.815C60.9867 24.7717 61.105 24.7167 61.215 24.65C61.3283 24.58 61.44 24.495 61.55 24.395C61.5833 24.365 61.6183 24.3417 61.655 24.325C61.6917 24.305 61.73 24.295 61.77 24.295ZM65.3839 20.79C65.7639 20.79 66.1089 20.8517 66.4189 20.975C66.7322 21.0983 66.9989 21.2733 67.2189 21.5C67.4422 21.7267 67.6139 22.0033 67.7339 22.33C67.8539 22.6567 67.9139 23.0217 67.9139 23.425C67.9139 23.8317 67.8539 24.1983 67.7339 24.525C67.6139 24.8517 67.4422 25.13 67.2189 25.36C66.9989 25.59 66.7322 25.7667 66.4189 25.89C66.1089 26.0133 65.7639 26.075 65.3839 26.075C65.0006 26.075 64.6522 26.0133 64.3389 25.89C64.0256 25.7667 63.7572 25.59 63.5339 25.36C63.3139 25.13 63.1422 24.8517 63.0189 24.525C62.8989 24.1983 62.8389 23.8317 62.8389 23.425C62.8389 23.0217 62.8989 22.6567 63.0189 22.33C63.1422 22.0033 63.3139 21.7267 63.5339 21.5C63.7572 21.2733 64.0256 21.0983 64.3389 20.975C64.6522 20.8517 65.0006 20.79 65.3839 20.79ZM65.3839 25.125C65.8106 25.125 66.1256 24.9817 66.3289 24.695C66.5356 24.4083 66.6389 23.9883 66.6389 23.435C66.6389 22.8817 66.5356 22.46 66.3289 22.17C66.1256 21.88 65.8106 21.735 65.3839 21.735C64.9506 21.735 64.6289 21.8817 64.4189 22.175C64.2122 22.465 64.1089 22.885 64.1089 23.435C64.1089 23.985 64.2122 24.405 64.4189 24.695C64.6289 24.9817 64.9506 25.125 65.3839 25.125ZM70.1061 18.57V26H68.8711V18.57H70.1061ZM72.5866 18.57V26H71.3516V18.57H72.5866ZM76.527 23.81C76.1704 23.8267 75.8704 23.8583 75.627 23.905C75.3837 23.9483 75.1887 24.005 75.042 24.075C74.8954 24.145 74.7904 24.2267 74.727 24.32C74.6637 24.4133 74.632 24.515 74.632 24.625C74.632 24.8417 74.6954 24.9967 74.822 25.09C74.952 25.1833 75.1204 25.23 75.327 25.23C75.5804 25.23 75.7987 25.185 75.982 25.095C76.1687 25.0017 76.3504 24.8617 76.527 24.675V23.81ZM73.697 21.585C74.287 21.045 74.997 20.775 75.827 20.775C76.127 20.775 76.3954 20.825 76.632 20.925C76.8687 21.0217 77.0687 21.1583 77.232 21.335C77.3954 21.5083 77.5187 21.7167 77.602 21.96C77.6887 22.2033 77.732 22.47 77.732 22.76V26H77.172C77.0554 26 76.9654 25.9833 76.902 25.95C76.8387 25.9133 76.7887 25.8417 76.752 25.735L76.642 25.365C76.512 25.4817 76.3854 25.585 76.262 25.675C76.1387 25.7617 76.0104 25.835 75.877 25.895C75.7437 25.955 75.6004 26 75.447 26.03C75.297 26.0633 75.1304 26.08 74.947 26.08C74.7304 26.08 74.5304 26.0517 74.347 25.995C74.1637 25.935 74.0054 25.8467 73.872 25.73C73.7387 25.6133 73.6354 25.4683 73.562 25.295C73.4887 25.1217 73.452 24.92 73.452 24.69C73.452 24.56 73.4737 24.4317 73.517 24.305C73.5604 24.175 73.6304 24.0517 73.727 23.935C73.827 23.8183 73.9554 23.7083 74.112 23.605C74.2687 23.5017 74.4604 23.4117 74.687 23.335C74.917 23.2583 75.1837 23.1967 75.487 23.15C75.7904 23.1 76.137 23.07 76.527 23.06V22.76C76.527 22.4167 76.4537 22.1633 76.307 22C76.1604 21.8333 75.9487 21.75 75.672 21.75C75.472 21.75 75.3054 21.7733 75.172 21.82C75.042 21.8667 74.927 21.92 74.827 21.98C74.727 22.0367 74.6354 22.0883 74.552 22.135C74.472 22.1817 74.382 22.205 74.282 22.205C74.1954 22.205 74.122 22.1833 74.062 22.14C74.002 22.0933 73.9537 22.04 73.917 21.98L73.697 21.585ZM80.1302 24.67C80.2702 24.84 80.4218 24.96 80.5852 25.03C80.7518 25.1 80.9268 25.135 81.1102 25.135C81.3002 25.135 81.4702 25.1017 81.6202 25.035C81.7735 24.965 81.9035 24.8583 82.0102 24.715C82.1168 24.5683 82.1985 24.3833 82.2552 24.16C82.3118 23.9333 82.3402 23.6633 82.3402 23.35C82.3402 22.7867 82.2468 22.38 82.0602 22.13C81.8735 21.8767 81.6052 21.75 81.2552 21.75C81.0185 21.75 80.8118 21.805 80.6352 21.915C80.4585 22.0217 80.2902 22.1733 80.1302 22.37V24.67ZM80.1302 21.5C80.3368 21.2833 80.5652 21.1117 80.8152 20.985C81.0685 20.855 81.3568 20.79 81.6802 20.79C81.9768 20.79 82.2435 20.8483 82.4802 20.965C82.7202 21.0817 82.9235 21.25 83.0902 21.47C83.2602 21.6867 83.3902 21.95 83.4802 22.26C83.5702 22.57 83.6152 22.9183 83.6152 23.305C83.6152 23.7217 83.5635 24.1 83.4602 24.44C83.3568 24.78 83.2085 25.0717 83.0152 25.315C82.8252 25.555 82.5952 25.7417 82.3252 25.875C82.0552 26.0083 81.7552 26.075 81.4252 26.075C81.2652 26.075 81.1202 26.0583 80.9902 26.025C80.8602 25.995 80.7402 25.9517 80.6302 25.895C80.5202 25.8383 80.4185 25.77 80.3252 25.69C80.2352 25.6067 80.1485 25.515 80.0652 25.415L80.0102 25.76C79.9902 25.8467 79.9552 25.9083 79.9052 25.945C79.8585 25.9817 79.7935 26 79.7102 26H78.8952V18.57H80.1302V21.5ZM87.699 21.87C87.6657 21.9233 87.6307 21.9617 87.594 21.985C87.5573 22.005 87.5107 22.015 87.454 22.015C87.394 22.015 87.329 21.9983 87.259 21.965C87.1923 21.9317 87.114 21.895 87.024 21.855C86.934 21.8117 86.8307 21.7733 86.714 21.74C86.6007 21.7067 86.4657 21.69 86.309 21.69C86.0657 21.69 85.874 21.7417 85.734 21.845C85.5973 21.9483 85.529 22.0833 85.529 22.25C85.529 22.36 85.564 22.4533 85.634 22.53C85.7073 22.6033 85.8023 22.6683 85.919 22.725C86.039 22.7817 86.174 22.8333 86.324 22.88C86.474 22.9233 86.6257 22.9717 86.779 23.025C86.9357 23.0783 87.089 23.14 87.239 23.21C87.389 23.2767 87.5223 23.3633 87.639 23.47C87.759 23.5733 87.854 23.6983 87.924 23.845C87.9973 23.9917 88.034 24.1683 88.034 24.375C88.034 24.6217 87.989 24.85 87.899 25.06C87.8123 25.2667 87.6823 25.4467 87.509 25.6C87.3357 25.75 87.1207 25.8683 86.864 25.955C86.6107 26.0383 86.3173 26.08 85.984 26.08C85.8073 26.08 85.634 26.0633 85.464 26.03C85.2973 26 85.1357 25.9567 84.979 25.9C84.8257 25.8433 84.6823 25.7767 84.549 25.7C84.419 25.6233 84.304 25.54 84.204 25.45L84.489 24.98C84.5257 24.9233 84.569 24.88 84.619 24.85C84.669 24.82 84.7323 24.805 84.809 24.805C84.8857 24.805 84.9573 24.8267 85.024 24.87C85.094 24.9133 85.174 24.96 85.264 25.01C85.354 25.06 85.459 25.1067 85.579 25.15C85.7023 25.1933 85.8573 25.215 86.044 25.215C86.1907 25.215 86.3157 25.1983 86.419 25.165C86.5257 25.1283 86.6123 25.0817 86.679 25.025C86.749 24.9683 86.799 24.9033 86.829 24.83C86.8623 24.7533 86.879 24.675 86.879 24.595C86.879 24.475 86.8423 24.3767 86.769 24.3C86.699 24.2233 86.604 24.1567 86.484 24.1C86.3673 24.0433 86.2323 23.9933 86.079 23.95C85.929 23.9033 85.774 23.8533 85.614 23.8C85.4573 23.7467 85.3023 23.685 85.149 23.615C84.999 23.5417 84.864 23.45 84.744 23.34C84.6273 23.23 84.5323 23.095 84.459 22.935C84.389 22.775 84.354 22.5817 84.354 22.355C84.354 22.145 84.3957 21.945 84.479 21.755C84.5623 21.565 84.684 21.4 84.844 21.26C85.0073 21.1167 85.209 21.0033 85.449 20.92C85.6923 20.8333 85.9723 20.79 86.289 20.79C86.6423 20.79 86.964 20.8483 87.254 20.965C87.544 21.0817 87.7857 21.235 87.979 21.425L87.699 21.87Z" fill="#FF7051"/>
<defs>
<clipPath id="clip0_8_341">
<rect width="88" height="25" fill="white"/>
</clipPath>
</defs>
</svg>
