<svg width="118" height="33" viewBox="0 0 118 33" fill="none" xmlns="http://www.w3.org/2000/svg">
<g clip-path="url(#clip0_2_102)">
<path d="M30.6386 1.78516C27.9474 1.78516 25.6184 2.70324 23.7553 4.53941C21.8921 6.37557 20.9088 8.61978 20.9088 11.323C20.9088 14.0263 21.8403 16.2705 23.7553 18.1066C25.6184 19.9428 27.9474 20.8609 30.6386 20.8609C33.3816 20.8609 35.6588 19.9428 37.5219 18.1066C39.3851 16.2705 40.3684 14.0263 40.3684 11.323C40.3684 8.61978 39.4368 6.37557 37.5219 4.53941C35.6588 2.70324 33.3816 1.78516 30.6386 1.78516ZM34.7272 15.4034C33.6403 16.4745 32.243 17.0355 30.6386 17.0355C29.0342 17.0355 27.6886 16.4745 26.55 15.4034C25.4632 14.3323 24.8939 12.9552 24.8939 11.323C24.8939 9.69088 25.4632 8.31375 26.55 7.24265C27.6368 6.17156 29.0342 5.6105 30.6386 5.6105C32.243 5.6105 33.5886 6.17156 34.7272 7.24265C35.814 8.31375 36.3833 9.69088 36.3833 11.323C36.3833 12.9552 35.8658 14.3323 34.7272 15.4034Z" fill="#005BAA"/>
<path d="M51.4439 16.9846C49.8395 16.9846 48.4939 16.4235 47.3553 15.3524C46.2684 14.2813 45.7509 12.9042 45.7509 11.323C45.7509 9.6909 46.3202 8.36478 47.3553 7.29368C48.4421 6.22258 49.8395 5.66153 51.4439 5.66153C53.6693 5.66153 55.429 6.73263 56.257 8.46678L59.6728 6.52861C58.2237 3.67235 55.0667 1.83618 51.4956 1.83618C48.7526 1.83618 46.4237 2.75427 44.5605 4.59043C42.7491 6.37559 41.8176 8.6198 41.8176 11.374C41.8176 14.0773 42.7491 16.3215 44.5605 18.1577C46.4237 19.9938 48.7526 20.9119 51.4956 20.9119C55.0667 20.9119 58.1719 19.1268 59.7763 16.2195L56.3605 14.2813C55.4807 15.9135 53.6175 16.9846 51.4439 16.9846Z" fill="#005BAA"/>
<path d="M76.4412 4.84543C74.9404 2.80525 72.8184 1.78516 70.0237 1.78516C67.4877 1.78516 65.3658 2.70324 63.5544 4.53941C61.743 6.37557 60.8632 8.61978 60.8632 11.323C60.8632 13.9753 61.743 16.2705 63.5544 18.1066C65.3658 19.9428 67.4877 20.8609 70.0237 20.8609C72.8184 20.8609 74.9404 19.8408 76.4412 17.8006V20.4018H80.4263V2.2442H76.4412V4.84543ZM74.7851 15.4544C73.6982 16.5255 72.3009 17.0865 70.6447 17.0865C68.9886 17.0865 67.5912 16.5255 66.5044 15.4544C65.4175 14.3323 64.8482 12.9552 64.8482 11.272C64.8482 9.58887 65.4175 8.21174 66.5044 7.14064C67.5912 6.01854 68.9886 5.45749 70.6447 5.45749C72.3009 5.45749 73.6982 6.01854 74.7851 7.14064C75.8719 8.21174 76.4412 9.58887 76.4412 11.272C76.4412 12.9552 75.9237 14.3323 74.7851 15.4544Z" fill="#005BAA"/>
<path d="M90.9842 9.58885C89.0693 9.02779 87.5167 8.41574 87.5167 7.24263C87.5167 5.96752 88.707 5.30446 90.2079 5.30446C91.864 5.30446 93.0544 5.96752 93.6754 7.34464L97.0395 5.50847C95.7456 3.16226 93.3131 1.73413 90.2596 1.73413C88.3447 1.73413 86.7403 2.24418 85.4465 3.26427C84.1526 4.28436 83.5316 5.61048 83.5316 7.29364C83.4798 11.119 87.1544 12.1901 89.8974 12.8531C91.864 13.3122 93.3649 14.0262 93.3649 15.1484C93.3649 16.4745 92.3298 17.1885 90.2596 17.1885C88.1895 17.1885 86.7921 16.3215 86.171 14.5873L82.7552 16.5255C83.9456 19.1777 86.6368 20.7589 90.2596 20.7589C92.3298 20.7589 93.986 20.2488 95.3833 19.2797C96.7289 18.3106 97.4535 16.9335 97.4535 15.1994C97.4535 11.374 93.7789 10.2519 90.9842 9.58885Z" fill="#005BAA"/>
<path d="M118 11.17C118 8.51781 117.12 6.2226 115.412 4.38643C113.704 2.55027 111.479 1.58118 108.788 1.58118C105.941 1.58118 103.612 2.49926 101.801 4.33543C99.9895 6.12059 99.0579 8.36479 99.0579 11.119C99.0579 13.8733 99.9895 16.1685 101.801 17.9537C103.612 19.7388 106.045 20.6569 109.046 20.6569C112.618 20.6569 115.309 19.3308 117.068 16.7296L113.808 14.8424C112.721 16.3215 111.168 17.0866 109.046 17.0866C105.993 17.0866 103.768 15.5564 103.146 12.8022H117.741C117.948 12.1391 118 11.5781 118 11.17ZM103.198 9.63991C103.768 6.88566 105.786 5.20251 108.736 5.20251C111.324 5.20251 113.446 6.73264 113.963 9.63991H103.198Z" fill="#005BAA"/>
<path d="M15.8368 18.8207L16.0439 18.6677C16.2509 18.5147 16.4061 18.3617 16.6132 18.1576C18.4763 16.3215 19.4596 14.0773 19.4596 11.374C19.4596 9.79289 19.0974 8.36476 18.4763 7.08964L15.0605 9.02782C15.3711 9.74189 15.5263 10.507 15.5263 11.374C15.5263 13.0062 14.957 14.3833 13.8702 15.4544C12.7833 16.5255 11.386 17.0866 9.78158 17.0866C8.17719 17.0866 6.83158 16.5255 5.69298 15.4544C4.60614 14.3833 4.03684 13.0062 4.03684 11.374C4.03684 9.74189 4.60614 8.36476 5.69298 7.29366C6.77982 6.22257 8.17719 5.66151 9.78158 5.66151H13.1974C13.6632 5.71252 15.2675 5.61051 16.7167 4.69243C16.8719 4.59042 17.0272 4.4374 17.2342 4.28439C18.0105 3.57032 18.9421 2.2442 18.9421 0H15.0088C15.0088 0.714065 14.8535 1.22411 14.543 1.47913C14.1289 1.88717 13.4044 1.88717 13.3009 1.88717H9.72982C7.0386 1.83617 4.70965 2.75425 2.84649 4.59042C0.931579 6.47759 0 8.72179 0 11.374C0 14.0773 0.931579 16.3215 2.84649 18.1576C4.70965 19.9938 7.0386 20.9119 9.72982 20.9119C10.4026 20.9119 11.0754 20.8609 11.7482 20.7589C13.4561 21.2689 15.0605 22.493 15.0605 24.7372C15.0605 27.4405 12.8868 29.2767 9.72982 29.2767C6.67632 29.1747 4.34737 27.4405 4.14035 24.9923H0C0.155263 29.7357 4.0886 33 9.67807 33C15.3711 33 19.2009 29.6337 19.2009 24.6862C19.2009 21.983 18.114 20.0958 15.8368 18.8207Z" fill="#005BAA"/>
</g>
<defs>
<clipPath id="clip0_2_102">
<rect width="118" height="33" fill="white"/>
</clipPath>
</defs>
</svg>
